<?xml version="1.0" encoding="UTF-8" ?>
<!DOCTYPE svg PUBLIC "-//W3C//DTD SVG 1.1//EN" "http://www.w3.org/Graphics/SVG/1.1/DTD/svg11.dtd">
<svg width="464pt" height="59pt" viewBox="0 0 464 59" version="1.1" xmlns="http://www.w3.org/2000/svg">
<g id="#ffffffff">
<path fill="#ffffff" opacity="1.00" d=" M 0.00 0.00 L 464.00 0.00 L 464.00 59.00 L 0.00 59.00 L 0.00 0.00 M 8.37 5.41 C 5.49 7.10 8.83 11.05 10.98 8.96 C 12.99 7.24 10.62 4.15 8.37 5.41 M 49.45 5.29 C 49.54 9.11 49.52 12.93 49.55 16.76 C 46.05 16.82 41.92 16.40 39.28 19.20 C 36.80 21.40 36.37 24.85 36.48 27.98 C 36.56 32.25 35.82 37.52 39.53 40.58 C 43.48 44.08 49.10 42.40 53.87 42.77 C 53.85 30.24 53.85 17.72 53.86 5.19 C 52.39 5.22 50.92 5.25 49.45 5.29 M 58.34 5.56 C 55.73 7.47 59.84 11.31 61.47 8.62 C 63.13 6.61 60.35 4.12 58.34 5.56 M 242.22 5.23 C 242.24 17.74 242.24 30.26 242.22 42.77 C 243.74 42.77 245.26 42.77 246.79 42.77 C 246.96 38.78 245.97 34.51 247.93 30.81 C 250.32 34.76 252.50 38.84 254.90 42.79 C 256.55 42.79 258.21 42.80 259.87 42.81 C 256.84 37.65 253.93 32.42 250.92 27.24 C 253.39 23.67 256.12 20.27 258.25 16.48 C 257.80 16.69 256.90 17.11 256.44 17.32 C 252.85 21.30 250.26 26.09 246.83 30.22 C 246.69 21.89 246.79 13.56 246.78 5.23 C 245.26 5.23 243.74 5.23 242.22 5.23 M 392.22 5.23 C 392.24 17.74 392.24 30.26 392.22 42.77 C 393.74 42.77 395.25 42.77 396.78 42.77 C 396.76 30.26 396.76 17.74 396.78 5.23 C 395.25 5.23 393.74 5.23 392.22 5.23 M 162.56 9.16 C 162.52 11.65 162.52 14.14 162.56 16.63 C 161.28 16.85 160.01 17.08 158.74 17.32 C 160.00 17.73 161.28 18.11 162.56 18.48 C 162.64 24.32 162.21 30.18 162.75 36.00 C 163.65 41.15 169.40 43.63 174.16 42.75 C 174.86 40.00 171.02 41.74 169.56 41.29 C 168.30 40.14 166.71 38.94 166.88 37.01 C 166.57 30.75 166.88 24.47 166.74 18.20 C 169.39 17.86 172.71 19.21 174.82 17.01 C 172.13 16.78 169.43 16.78 166.74 16.79 C 166.77 13.01 166.76 9.22 166.78 5.43 C 165.36 6.67 163.96 7.92 162.56 9.16 M 275.83 9.22 C 275.80 11.74 275.80 14.26 275.80 16.78 C 275.05 16.79 273.55 16.82 272.80 16.83 L 272.83 18.17 C 273.58 18.19 275.06 18.21 275.81 18.22 C 275.88 23.83 275.62 29.45 275.90 35.06 C 275.97 40.61 283.76 45.18 288.17 41.60 C 285.66 41.29 283.13 41.01 280.75 40.13 C 279.07 32.95 280.17 25.52 279.84 18.22 C 282.57 18.23 285.31 18.19 288.05 18.01 C 287.69 17.70 286.98 17.07 286.62 16.76 C 284.36 16.79 282.10 16.80 279.84 16.81 C 279.85 13.04 279.85 9.26 279.89 5.49 C 278.53 6.73 277.18 7.97 275.83 9.22 M 328.80 5.24 C 328.80 17.75 328.79 30.26 328.81 42.76 C 330.26 42.77 331.73 42.77 333.19 42.77 C 333.21 34.56 333.18 26.36 333.21 18.15 C 336.14 18.21 340.64 17.50 341.68 21.18 C 342.03 28.36 341.65 35.57 341.83 42.76 C 343.28 42.76 344.74 42.76 346.20 42.76 C 346.15 36.84 346.27 30.92 346.18 25.01 C 346.33 21.86 344.13 19.18 341.54 17.67 C 338.94 16.43 335.97 16.87 333.20 16.77 C 333.20 12.92 333.20 9.08 333.20 5.24 C 331.73 5.24 330.26 5.24 328.80 5.24 M 70.13 16.71 C 70.16 17.09 70.21 17.85 70.24 18.23 C 73.18 18.02 76.30 18.04 78.50 20.30 C 78.51 21.92 78.52 23.54 78.53 25.16 C 75.13 25.44 71.25 25.16 68.53 27.62 C 64.71 30.84 64.62 37.23 68.44 40.49 C 72.35 44.14 78.07 42.37 82.86 42.77 C 82.73 36.19 83.09 29.58 82.71 23.01 C 81.32 17.43 75.07 16.20 70.13 16.71 M 216.60 16.83 C 212.49 17.15 208.95 20.81 208.88 24.96 C 208.70 28.33 208.66 31.72 208.95 35.09 C 209.20 38.30 211.64 41.00 214.52 42.25 C 219.43 44.32 225.88 40.51 226.13 35.12 C 226.29 31.72 226.28 28.30 226.15 24.90 C 226.19 20.09 221.29 16.10 216.60 16.83 M 312.25 23.90 C 312.04 27.91 311.99 31.94 312.31 35.94 C 313.36 41.58 320.82 44.61 325.56 42.00 C 322.98 40.23 317.93 42.55 316.70 38.49 C 316.26 32.84 316.39 27.11 316.63 21.45 C 317.59 17.19 322.70 18.47 325.92 17.87 C 320.99 14.79 313.01 17.84 312.25 23.90 M 7.23 16.80 C 7.23 25.46 7.25 34.12 7.22 42.77 C 8.74 42.77 10.26 42.77 11.78 42.77 C 11.76 34.12 11.75 25.47 11.78 16.82 C 10.26 16.81 8.75 16.81 7.23 16.80 M 15.23 16.82 C 15.23 25.47 15.25 34.12 15.22 42.77 C 16.74 42.77 18.26 42.77 19.78 42.78 C 19.74 34.56 19.80 26.34 19.74 18.13 C 22.26 18.38 25.37 17.56 27.34 19.59 C 28.69 20.61 28.06 22.55 28.27 23.99 C 28.23 30.24 28.22 36.49 28.25 42.74 C 29.76 42.75 31.26 42.77 32.77 42.79 C 32.71 36.84 32.86 30.89 32.74 24.95 C 32.77 21.46 30.10 18.35 26.92 17.21 C 23.09 16.37 19.12 16.94 15.23 16.82 M 57.53 16.84 C 57.47 25.46 57.64 34.07 57.43 42.69 C 58.91 42.73 60.38 42.77 61.86 42.82 C 61.85 34.13 61.86 25.45 61.86 16.77 C 60.41 16.79 58.97 16.82 57.53 16.84 M 86.81 16.82 C 86.80 25.47 86.79 34.12 86.82 42.77 C 88.27 42.77 89.73 42.77 91.19 42.76 C 91.21 34.56 91.18 26.35 91.21 18.15 C 94.12 18.24 98.46 17.51 99.67 20.99 C 100.04 28.24 99.64 35.51 99.84 42.76 C 101.29 42.76 102.74 42.77 104.19 42.77 C 104.17 37.19 104.24 31.61 104.21 26.03 C 104.25 23.59 103.66 20.95 101.69 19.33 C 97.85 15.29 91.72 17.23 86.81 16.82 M 117.14 16.79 C 117.14 25.46 117.15 34.13 117.14 42.80 C 118.60 42.77 120.06 42.76 121.52 42.74 C 121.41 34.54 121.53 26.34 121.46 18.15 C 124.42 18.24 128.78 17.50 130.01 21.09 C 130.36 28.30 130.04 35.54 130.13 42.77 C 131.59 42.77 133.04 42.78 134.50 42.79 C 134.41 36.87 134.57 30.95 134.46 25.03 C 134.54 21.52 131.87 18.51 128.77 17.22 C 124.97 16.36 121.01 16.95 117.14 16.79 M 138.32 24.88 C 138.37 30.33 136.77 37.41 141.99 41.10 C 144.80 42.95 149.62 44.03 152.23 41.50 C 150.10 41.30 147.96 41.31 145.83 41.10 C 143.86 40.83 143.20 38.69 142.41 37.19 C 146.67 36.77 151.20 35.30 153.72 31.61 C 157.09 27.63 156.38 20.96 151.83 18.16 C 146.63 14.38 138.51 18.49 138.32 24.88 M 177.63 16.82 C 179.91 25.44 182.52 33.96 184.63 42.62 C 185.77 42.70 186.91 42.77 188.06 42.84 C 189.25 37.49 190.35 32.12 191.33 26.72 C 193.87 31.77 194.50 37.49 196.34 42.79 C 197.42 42.78 198.51 42.77 199.60 42.76 C 201.20 33.86 203.70 25.12 204.87 16.16 C 204.50 16.62 203.77 17.54 203.41 18.00 C 201.74 24.30 200.80 30.77 199.28 37.11 C 197.25 30.42 195.51 23.65 193.63 16.92 C 192.14 16.85 190.64 16.78 189.15 16.72 C 189.68 18.84 190.38 20.93 190.64 23.11 C 190.04 27.88 188.63 32.51 187.83 37.26 C 185.76 30.48 183.96 23.62 182.07 16.79 C 180.59 16.80 179.11 16.81 177.63 16.82 M 230.16 24.97 C 230.06 30.91 230.20 36.85 230.14 42.79 C 231.59 42.77 233.06 42.76 234.52 42.74 C 234.50 35.86 234.38 28.98 234.53 22.10 C 234.50 19.30 237.70 18.49 239.49 16.98 C 234.82 16.20 230.12 20.26 230.16 24.97 M 291.25 23.90 C 291.08 28.14 290.88 32.44 291.44 36.65 C 292.66 40.14 296.20 42.89 299.96 42.81 C 301.59 42.70 303.93 43.40 304.62 41.38 C 301.93 41.30 299.23 41.21 296.63 40.49 C 296.19 39.33 295.76 38.18 295.33 37.02 C 300.32 36.92 305.51 34.38 307.65 29.68 C 309.62 25.77 308.37 20.62 304.63 18.24 C 299.87 14.60 291.97 17.94 291.25 23.90 M 350.14 16.79 C 350.14 25.45 350.16 34.11 350.13 42.77 C 351.58 42.77 353.04 42.78 354.50 42.79 C 354.44 34.58 354.51 26.36 354.46 18.15 C 357.41 18.24 361.74 17.51 363.01 21.06 C 363.36 28.28 363.04 35.52 363.13 42.76 C 364.58 42.77 366.03 42.79 367.48 42.82 C 367.42 36.90 367.56 30.98 367.46 25.06 C 367.55 21.55 364.91 18.54 361.82 17.23 C 358.01 16.34 354.02 16.96 350.14 16.79 M 376.35 17.47 C 372.56 18.95 370.62 23.16 371.11 27.07 C 371.40 31.48 369.93 36.92 373.77 40.20 C 376.95 43.75 382.91 43.55 386.08 40.11 C 389.89 36.48 388.10 30.72 388.49 26.08 C 389.23 19.84 382.01 14.68 376.35 17.47 M 405.46 17.50 C 401.82 19.09 399.92 23.17 400.21 27.01 C 400.28 31.66 399.31 37.36 403.46 40.66 C 408.04 45.16 416.50 41.99 417.65 35.89 C 417.89 31.90 417.88 27.88 417.64 23.89 C 416.89 18.49 410.36 15.09 405.46 17.50 M 422.84 20.98 C 420.59 25.57 421.53 31.07 421.84 36.01 C 422.87 41.83 429.44 43.50 434.51 42.82 C 434.51 45.35 434.52 47.87 434.61 50.40 C 433.15 51.79 431.42 52.83 429.60 53.66 C 429.93 53.86 430.61 54.25 430.95 54.44 C 434.59 53.71 438.64 51.18 438.81 47.09 C 438.94 36.99 438.80 26.89 438.86 16.80 C 433.43 17.03 426.13 15.28 422.84 20.98 M 442.63 16.82 C 445.12 25.88 447.57 34.95 450.13 43.98 C 451.52 47.88 449.03 51.78 449.39 55.75 C 450.99 53.50 451.41 50.71 451.98 48.07 C 454.09 37.61 456.39 27.19 458.53 16.74 C 458.19 16.94 457.51 17.34 457.17 17.53 C 454.90 23.59 455.05 30.36 452.43 36.32 C 450.67 29.80 448.81 23.31 447.08 16.79 C 445.59 16.80 444.11 16.81 442.63 16.82 Z" />
<path fill="#ffffff" opacity="1.00" d=" M 40.75 21.58 C 41.77 20.45 42.54 18.90 44.05 18.35 C 45.87 18.11 47.71 18.18 49.54 18.15 C 49.48 25.85 49.57 33.55 49.49 41.25 C 47.51 41.25 45.53 41.26 43.55 41.31 C 42.50 40.03 40.87 38.89 40.91 37.05 C 40.69 31.90 41.02 26.73 40.75 21.58 Z" />
<path fill="#ffffff" opacity="1.00" d=" M 142.98 21.02 C 144.04 17.68 149.23 17.09 150.84 20.26 C 153.23 26.43 149.98 34.99 142.80 35.85 C 142.88 30.91 142.47 25.94 142.98 21.02 Z" />
<path fill="#ffffff" opacity="1.00" d=" M 404.85 21.90 C 405.03 17.53 411.94 16.91 413.12 20.91 C 413.44 26.97 413.14 33.06 413.22 39.13 C 411.05 41.84 406.73 42.08 404.99 38.79 C 404.52 33.18 404.75 27.52 404.85 21.90 Z" />
<path fill="#ffffff" opacity="1.00" d=" M 425.89 22.91 C 425.89 21.09 426.82 18.82 428.78 18.42 C 430.67 18.09 432.62 18.19 434.54 18.15 C 434.49 25.84 434.55 33.53 434.51 41.23 C 432.52 41.24 430.55 41.26 428.58 41.32 C 427.51 40.04 425.86 38.89 425.91 37.05 C 425.78 32.34 425.81 27.62 425.89 22.91 Z" />
<path fill="#ffffff" opacity="1.00" d=" M 215.25 18.88 C 217.23 17.22 220.32 18.51 221.58 20.51 C 222.12 25.30 221.66 30.15 221.83 34.96 C 221.70 36.80 222.17 39.21 220.35 40.39 C 217.95 42.70 213.01 40.45 213.24 37.06 C 213.16 32.07 213.08 27.06 213.29 22.07 C 213.22 20.68 214.25 19.68 215.25 18.88 Z" />
<path fill="#ffffff" opacity="1.00" d=" M 295.57 22.04 C 295.59 18.64 300.25 16.87 302.67 19.20 C 304.88 21.15 304.27 24.42 304.12 27.03 C 303.62 31.54 299.93 35.10 295.55 35.92 C 295.51 31.30 295.32 26.66 295.57 22.04 Z" />
<path fill="#ffffff" opacity="1.00" d=" M 377.27 18.97 C 379.43 17.18 383.08 18.48 384.00 21.02 C 384.37 25.34 384.04 29.70 384.17 34.04 C 384.03 36.02 384.64 38.43 383.01 39.96 C 380.74 42.92 375.30 40.70 375.51 37.08 C 375.45 32.09 375.38 27.09 375.55 22.10 C 375.50 20.81 376.31 19.75 377.27 18.97 Z" />
<path fill="#ffffff" opacity="1.00" d=" M 70.04 30.06 C 70.91 26.26 75.51 26.78 78.47 26.66 C 78.57 31.52 78.90 36.37 78.82 41.23 C 76.73 41.24 74.65 41.26 72.57 41.33 C 68.93 38.74 69.68 33.91 70.04 30.06 Z" />
</g>
<g id="#ed1b23ff">
<path fill="#ed1b23" opacity="1.00" d=" M 8.37 5.41 C 10.62 4.15 12.99 7.24 10.98 8.96 C 8.83 11.05 5.49 7.10 8.37 5.41 Z" />
<path fill="#ed1b23" opacity="1.00" d=" M 49.45 5.29 C 50.92 5.25 52.39 5.22 53.86 5.19 C 53.85 17.72 53.85 30.24 53.87 42.77 C 49.10 42.40 43.48 44.08 39.53 40.58 C 35.82 37.52 36.56 32.25 36.48 27.98 C 36.37 24.85 36.80 21.40 39.28 19.20 C 41.92 16.40 46.05 16.82 49.55 16.76 C 49.52 12.93 49.54 9.11 49.45 5.29 M 40.75 21.58 C 41.02 26.73 40.69 31.90 40.91 37.05 C 40.87 38.89 42.50 40.03 43.55 41.31 C 45.53 41.26 47.51 41.25 49.49 41.25 C 49.57 33.55 49.48 25.85 49.54 18.15 C 47.71 18.18 45.87 18.11 44.05 18.35 C 42.54 18.90 41.77 20.45 40.75 21.58 Z" />
<path fill="#ed1b23" opacity="1.00" d=" M 58.34 5.56 C 60.35 4.12 63.13 6.61 61.47 8.62 C 59.84 11.31 55.73 7.47 58.34 5.56 Z" />
<path fill="#ed1b23" opacity="1.00" d=" M 242.22 5.23 C 243.74 5.23 245.26 5.23 246.78 5.23 C 246.79 13.56 246.69 21.89 246.83 30.22 C 250.26 26.09 252.85 21.30 256.44 17.32 C 256.90 17.11 257.80 16.69 258.25 16.48 C 256.12 20.27 253.39 23.67 250.92 27.24 C 253.93 32.42 256.84 37.65 259.87 42.81 C 258.21 42.80 256.55 42.79 254.90 42.79 C 252.50 38.84 250.32 34.76 247.93 30.81 C 245.97 34.51 246.96 38.78 246.79 42.77 C 245.26 42.77 243.74 42.77 242.22 42.77 C 242.24 30.26 242.24 17.74 242.22 5.23 Z" />
<path fill="#ed1b23" opacity="1.00" d=" M 392.22 5.23 C 393.74 5.23 395.25 5.23 396.78 5.23 C 396.76 17.74 396.76 30.26 396.78 42.77 C 395.25 42.77 393.74 42.77 392.22 42.77 C 392.24 30.26 392.24 17.74 392.22 5.23 Z" />
<path fill="#ed1b23" opacity="1.00" d=" M 162.56 9.16 C 163.96 7.92 165.36 6.67 166.78 5.43 C 166.76 9.22 166.77 13.01 166.74 16.79 C 169.43 16.78 172.13 16.78 174.82 17.01 C 172.71 19.21 169.39 17.86 166.74 18.20 C 166.88 24.47 166.57 30.75 166.88 37.01 C 166.71 38.94 168.30 40.14 169.56 41.29 C 171.02 41.74 174.86 40.00 174.16 42.75 C 169.40 43.63 163.65 41.15 162.75 36.00 C 162.21 30.18 162.64 24.32 162.56 18.48 C 161.28 18.11 160.00 17.73 158.74 17.32 C 160.01 17.08 161.28 16.85 162.56 16.63 C 162.52 14.14 162.52 11.65 162.56 9.16 Z" />
<path fill="#ed1b23" opacity="1.00" d=" M 275.83 9.22 C 277.18 7.97 278.53 6.73 279.89 5.49 C 279.85 9.26 279.85 13.04 279.84 16.81 C 282.10 16.80 284.36 16.79 286.62 16.76 C 286.98 17.07 287.69 17.70 288.05 18.01 C 285.31 18.19 282.57 18.23 279.84 18.22 C 280.17 25.52 279.07 32.95 280.75 40.13 C 283.13 41.01 285.66 41.29 288.17 41.60 C 283.76 45.18 275.97 40.61 275.90 35.06 C 275.62 29.45 275.88 23.83 275.81 18.22 C 275.06 18.21 273.58 18.19 272.83 18.17 L 272.80 16.83 C 273.55 16.82 275.05 16.79 275.80 16.78 C 275.80 14.26 275.80 11.74 275.83 9.22 Z" />
<path fill="#ed1b23" opacity="1.00" d=" M 328.80 5.24 C 330.26 5.24 331.73 5.24 333.20 5.24 C 333.20 9.08 333.20 12.92 333.20 16.77 C 335.97 16.87 338.94 16.43 341.54 17.67 C 344.13 19.18 346.33 21.86 346.18 25.01 C 346.27 30.92 346.15 36.84 346.20 42.76 C 344.74 42.76 343.28 42.76 341.83 42.76 C 341.65 35.57 342.03 28.36 341.68 21.18 C 340.64 17.50 336.14 18.21 333.21 18.15 C 333.18 26.36 333.21 34.56 333.19 42.77 C 331.73 42.77 330.26 42.77 328.81 42.76 C 328.79 30.26 328.80 17.75 328.80 5.24 Z" />
<path fill="#ed1b23" opacity="1.00" d=" M 70.13 16.71 C 75.07 16.20 81.32 17.43 82.71 23.01 C 83.09 29.58 82.73 36.19 82.86 42.77 C 78.07 42.37 72.35 44.14 68.44 40.49 C 64.62 37.23 64.71 30.84 68.53 27.62 C 71.25 25.16 75.13 25.44 78.53 25.16 C 78.52 23.54 78.51 21.92 78.50 20.30 C 76.30 18.04 73.18 18.02 70.24 18.23 C 70.21 17.85 70.16 17.09 70.13 16.71 M 70.04 30.06 C 69.68 33.91 68.93 38.74 72.57 41.33 C 74.65 41.26 76.73 41.24 78.82 41.23 C 78.90 36.37 78.57 31.52 78.47 26.66 C 75.51 26.78 70.91 26.26 70.04 30.06 Z" />
<path fill="#ed1b23" opacity="1.00" d=" M 216.60 16.83 C 221.29 16.10 226.19 20.09 226.15 24.90 C 226.28 28.30 226.29 31.72 226.13 35.12 C 225.88 40.51 219.43 44.32 214.52 42.25 C 211.64 41.00 209.20 38.30 208.95 35.09 C 208.66 31.72 208.70 28.33 208.88 24.96 C 208.95 20.81 212.49 17.15 216.60 16.83 M 215.25 18.88 C 214.25 19.68 213.22 20.68 213.29 22.07 C 213.08 27.06 213.16 32.07 213.24 37.06 C 213.01 40.45 217.95 42.70 220.35 40.39 C 222.17 39.21 221.70 36.80 221.83 34.96 C 221.66 30.15 222.12 25.30 221.58 20.51 C 220.32 18.51 217.23 17.22 215.25 18.88 Z" />
<path fill="#ed1b23" opacity="1.00" d=" M 312.25 23.90 C 313.01 17.84 320.99 14.79 325.92 17.87 C 322.70 18.47 317.59 17.19 316.63 21.45 C 316.39 27.11 316.26 32.84 316.70 38.49 C 317.93 42.55 322.98 40.23 325.56 42.00 C 320.82 44.61 313.36 41.58 312.31 35.94 C 311.99 31.94 312.04 27.91 312.25 23.90 Z" />
<path fill="#ed1b23" opacity="1.00" d=" M 7.23 16.80 C 8.75 16.81 10.26 16.81 11.78 16.82 C 11.75 25.47 11.76 34.12 11.78 42.77 C 10.26 42.77 8.74 42.77 7.22 42.77 C 7.25 34.12 7.23 25.46 7.23 16.80 Z" />
<path fill="#ed1b23" opacity="1.00" d=" M 15.23 16.82 C 19.12 16.94 23.09 16.37 26.92 17.21 C 30.10 18.35 32.77 21.46 32.74 24.95 C 32.86 30.89 32.71 36.84 32.77 42.79 C 31.26 42.77 29.76 42.75 28.25 42.74 C 28.22 36.49 28.23 30.24 28.27 23.99 C 28.06 22.55 28.69 20.61 27.34 19.59 C 25.37 17.56 22.26 18.38 19.74 18.13 C 19.80 26.34 19.74 34.56 19.78 42.78 C 18.26 42.77 16.74 42.77 15.22 42.77 C 15.25 34.12 15.23 25.47 15.23 16.82 Z" />
<path fill="#ed1b23" opacity="1.00" d=" M 57.53 16.84 C 58.97 16.82 60.41 16.79 61.86 16.77 C 61.86 25.45 61.85 34.13 61.86 42.82 C 60.38 42.77 58.91 42.73 57.43 42.69 C 57.64 34.07 57.47 25.46 57.53 16.84 Z" />
<path fill="#ed1b23" opacity="1.00" d=" M 86.81 16.82 C 91.72 17.23 97.85 15.29 101.69 19.33 C 103.66 20.95 104.25 23.59 104.21 26.03 C 104.24 31.61 104.17 37.19 104.19 42.77 C 102.74 42.77 101.29 42.76 99.84 42.76 C 99.64 35.51 100.04 28.24 99.67 20.99 C 98.46 17.51 94.12 18.24 91.21 18.15 C 91.18 26.35 91.21 34.56 91.19 42.76 C 89.73 42.77 88.27 42.77 86.82 42.77 C 86.79 34.12 86.80 25.47 86.81 16.82 Z" />
<path fill="#ed1b23" opacity="1.00" d=" M 117.14 16.79 C 121.01 16.95 124.97 16.36 128.77 17.22 C 131.87 18.51 134.54 21.52 134.46 25.03 C 134.57 30.95 134.41 36.87 134.50 42.79 C 133.04 42.78 131.59 42.77 130.13 42.77 C 130.04 35.54 130.36 28.30 130.01 21.09 C 128.78 17.50 124.42 18.24 121.46 18.15 C 121.53 26.34 121.41 34.54 121.52 42.74 C 120.06 42.76 118.60 42.77 117.14 42.80 C 117.15 34.13 117.14 25.46 117.14 16.79 Z" />
<path fill="#ed1b23" opacity="1.00" d=" M 138.32 24.88 C 138.51 18.49 146.63 14.38 151.83 18.16 C 156.38 20.96 157.09 27.63 153.72 31.61 C 151.20 35.30 146.67 36.77 142.41 37.19 C 143.20 38.69 143.86 40.83 145.83 41.10 C 147.96 41.31 150.10 41.30 152.23 41.50 C 149.62 44.03 144.80 42.95 141.99 41.10 C 136.77 37.41 138.37 30.33 138.32 24.88 M 142.98 21.02 C 142.47 25.94 142.88 30.91 142.80 35.85 C 149.98 34.99 153.23 26.43 150.84 20.26 C 149.23 17.09 144.04 17.68 142.98 21.02 Z" />
<path fill="#ed1b23" opacity="1.00" d=" M 177.63 16.82 C 179.11 16.81 180.59 16.80 182.07 16.79 C 183.96 23.62 185.76 30.48 187.83 37.26 C 188.63 32.51 190.04 27.88 190.64 23.11 C 190.38 20.93 189.68 18.84 189.15 16.72 C 190.64 16.78 192.14 16.85 193.63 16.92 C 195.51 23.65 197.25 30.42 199.28 37.11 C 200.80 30.77 201.74 24.30 203.41 18.00 C 203.77 17.54 204.50 16.62 204.87 16.16 C 203.70 25.12 201.20 33.86 199.60 42.76 C 198.51 42.77 197.42 42.78 196.34 42.79 C 194.50 37.49 193.87 31.77 191.33 26.72 C 190.35 32.12 189.25 37.49 188.06 42.84 C 186.91 42.77 185.77 42.70 184.63 42.62 C 182.52 33.96 179.91 25.44 177.63 16.82 Z" />
<path fill="#ed1b23" opacity="1.00" d=" M 230.16 24.97 C 230.12 20.26 234.82 16.20 239.49 16.98 C 237.70 18.49 234.50 19.30 234.53 22.10 C 234.38 28.98 234.50 35.86 234.52 42.74 C 233.06 42.76 231.59 42.77 230.14 42.79 C 230.20 36.85 230.06 30.91 230.16 24.97 Z" />
<path fill="#ed1b23" opacity="1.00" d=" M 291.25 23.90 C 291.97 17.94 299.87 14.60 304.63 18.24 C 308.37 20.62 309.62 25.77 307.65 29.68 C 305.51 34.38 300.32 36.92 295.33 37.02 C 295.76 38.18 296.19 39.33 296.63 40.49 C 299.23 41.21 301.93 41.30 304.62 41.38 C 303.93 43.40 301.59 42.70 299.96 42.81 C 296.20 42.89 292.66 40.14 291.44 36.65 C 290.88 32.44 291.08 28.14 291.25 23.90 M 295.57 22.04 C 295.32 26.66 295.51 31.30 295.55 35.92 C 299.93 35.10 303.62 31.54 304.12 27.03 C 304.27 24.42 304.88 21.15 302.67 19.20 C 300.25 16.87 295.59 18.64 295.57 22.04 Z" />
<path fill="#ed1b23" opacity="1.00" d=" M 350.14 16.79 C 354.02 16.96 358.01 16.34 361.82 17.23 C 364.91 18.54 367.55 21.55 367.46 25.06 C 367.56 30.98 367.42 36.90 367.48 42.82 C 366.03 42.79 364.58 42.77 363.13 42.76 C 363.04 35.52 363.36 28.28 363.01 21.06 C 361.74 17.51 357.41 18.24 354.46 18.15 C 354.51 26.36 354.44 34.58 354.50 42.79 C 353.04 42.78 351.58 42.77 350.13 42.77 C 350.16 34.11 350.14 25.45 350.14 16.79 Z" />
<path fill="#ed1b23" opacity="1.00" d=" M 376.35 17.47 C 382.01 14.68 389.23 19.84 388.49 26.08 C 388.10 30.72 389.89 36.48 386.08 40.11 C 382.91 43.55 376.95 43.75 373.77 40.20 C 369.93 36.92 371.40 31.48 371.11 27.07 C 370.62 23.16 372.56 18.95 376.35 17.47 M 377.27 18.97 C 376.31 19.75 375.50 20.81 375.55 22.10 C 375.38 27.09 375.45 32.09 375.51 37.08 C 375.30 40.70 380.74 42.92 383.01 39.96 C 384.64 38.43 384.03 36.02 384.17 34.04 C 384.04 29.70 384.37 25.34 384.00 21.02 C 383.08 18.48 379.43 17.18 377.27 18.97 Z" />
<path fill="#ed1b23" opacity="1.00" d=" M 405.46 17.50 C 410.36 15.09 416.89 18.49 417.64 23.89 C 417.88 27.88 417.89 31.90 417.65 35.89 C 416.50 41.99 408.04 45.16 403.46 40.66 C 399.31 37.36 400.28 31.66 400.21 27.01 C 399.92 23.17 401.82 19.09 405.46 17.50 M 404.85 21.90 C 404.75 27.52 404.52 33.18 404.99 38.79 C 406.73 42.08 411.05 41.84 413.22 39.13 C 413.14 33.06 413.44 26.97 413.12 20.91 C 411.94 16.91 405.03 17.53 404.85 21.90 Z" />
<path fill="#ed1b23" opacity="1.00" d=" M 422.84 20.98 C 426.13 15.28 433.43 17.03 438.86 16.80 C 438.80 26.89 438.94 36.99 438.81 47.09 C 438.64 51.18 434.59 53.71 430.95 54.44 C 430.61 54.25 429.93 53.86 429.60 53.66 C 431.42 52.83 433.15 51.79 434.61 50.40 C 434.52 47.87 434.51 45.35 434.51 42.82 C 429.44 43.50 422.87 41.83 421.84 36.01 C 421.53 31.07 420.59 25.57 422.84 20.98 M 425.89 22.91 C 425.81 27.62 425.78 32.34 425.91 37.05 C 425.86 38.89 427.51 40.04 428.58 41.32 C 430.55 41.26 432.52 41.24 434.51 41.23 C 434.55 33.53 434.49 25.84 434.54 18.15 C 432.62 18.19 430.67 18.09 428.78 18.42 C 426.82 18.82 425.89 21.09 425.89 22.91 Z" />
<path fill="#ed1b23" opacity="1.00" d=" M 442.63 16.82 C 444.11 16.81 445.59 16.80 447.08 16.79 C 448.81 23.31 450.67 29.80 452.43 36.32 C 455.05 30.36 454.90 23.59 457.17 17.53 C 457.51 17.34 458.19 16.94 458.53 16.74 C 456.39 27.19 454.09 37.61 451.98 48.07 C 451.41 50.71 450.99 53.50 449.39 55.75 C 449.03 51.78 451.52 47.88 450.13 43.98 C 447.57 34.95 445.12 25.88 442.63 16.82 Z" />
</g>
</svg>
