<?xml version="1.0" encoding="UTF-8" ?>
<!DOCTYPE svg PUBLIC "-//W3C//DTD SVG 1.1//EN" "http://www.w3.org/Graphics/SVG/1.1/DTD/svg11.dtd">
<svg width="90pt" height="84pt" viewBox="0 0 90 84" version="1.1" xmlns="http://www.w3.org/2000/svg">
<g id="#ffffffff">
<path fill="#ffffff" opacity="1.00" d=" M 60.37 8.65 C 71.48 10.43 81.10 20.53 82.32 31.71 C 78.85 27.30 77.84 21.32 73.49 17.50 C 70.00 13.29 64.37 12.15 60.37 8.65 Z" />
<path fill="#ffffff" opacity="1.00" d=" M 57.68 15.03 C 67.12 15.80 74.35 24.56 76.19 33.43 C 72.79 31.67 72.84 27.21 70.40 24.56 C 67.36 19.94 62.00 18.11 57.68 15.03 Z" />
<path fill="#ffffff" opacity="1.00" d=" M 55.34 20.62 C 62.62 22.24 68.16 28.35 69.86 35.49 C 66.46 34.02 66.28 29.68 63.68 27.34 C 61.42 24.42 57.10 23.96 55.34 20.62 Z" />
<path fill="#ffffff" opacity="1.00" d=" M 52.59 26.82 C 58.01 27.96 62.88 32.56 63.01 38.32 C 60.35 33.66 56.32 30.45 52.59 26.82 Z" />
<path fill="#ffffff" opacity="1.00" d=" M 51.31 45.89 C 50.57 40.74 51.72 35.71 56.55 33.02 C 56.64 37.44 56.66 41.86 56.65 46.28 C 59.89 46.23 63.15 46.18 66.35 46.83 C 63.47 48.78 59.90 48.05 56.65 48.13 C 56.79 55.74 56.28 63.39 56.87 70.98 C 57.63 75.74 63.38 73.89 66.25 76.19 C 60.36 78.00 52.88 75.04 51.63 68.60 C 50.99 61.86 51.54 55.06 51.34 48.29 C 50.31 48.11 48.26 47.75 47.24 47.57 C 48.42 46.64 49.88 46.25 51.31 45.89 Z" />
<path fill="#ffffff" opacity="1.00" d=" M 13.11 46.36 C 14.80 46.30 16.49 46.25 18.18 46.19 C 18.34 56.11 18.46 66.06 18.17 75.97 C 16.85 77.09 14.75 76.39 13.12 76.70 C 13.13 66.59 13.14 56.48 13.11 46.36 Z" />
<path fill="#ffffff" opacity="1.00" d=" M 22.46 46.55 C 29.61 46.25 39.78 44.59 42.99 53.02 C 44.29 60.75 43.18 68.73 43.55 76.55 C 41.80 76.56 40.04 76.57 38.28 76.59 C 38.04 68.10 38.75 59.55 37.96 51.09 C 36.10 47.29 31.34 48.25 27.90 48.13 C 27.78 57.65 27.88 67.17 27.84 76.69 C 26.06 76.55 24.28 76.45 22.50 76.43 C 22.68 66.47 22.76 56.50 22.46 46.55 Z" />
</g>
<g id="#0071a7ff">
<path fill="#0071a7" opacity="1.00" d=" M 2.58 2.00 C 30.64 2.00 58.70 2.00 86.75 1.99 C 86.63 25.01 86.75 48.04 86.69 71.06 C 87.02 76.47 82.72 82.05 77.08 81.99 C 55.70 82.03 34.32 81.97 12.95 82.02 C 7.51 82.41 2.61 77.37 2.70 72.02 C 2.54 48.68 2.78 25.34 2.58 2.00 M 60.37 8.65 C 64.37 12.15 70.00 13.29 73.49 17.50 C 77.84 21.32 78.85 27.30 82.32 31.71 C 81.10 20.53 71.48 10.43 60.37 8.65 M 57.68 15.03 C 62.00 18.11 67.36 19.94 70.40 24.56 C 72.84 27.21 72.79 31.67 76.19 33.43 C 74.35 24.56 67.12 15.80 57.68 15.03 M 55.34 20.62 C 57.10 23.96 61.42 24.42 63.68 27.34 C 66.28 29.68 66.46 34.02 69.86 35.49 C 68.16 28.35 62.62 22.24 55.34 20.62 M 52.59 26.82 C 56.32 30.45 60.35 33.66 63.01 38.32 C 62.88 32.56 58.01 27.96 52.59 26.82 M 51.31 45.89 C 49.88 46.25 48.42 46.64 47.24 47.57 C 48.26 47.75 50.31 48.11 51.34 48.29 C 51.54 55.06 50.99 61.86 51.63 68.60 C 52.88 75.04 60.36 78.00 66.25 76.19 C 63.38 73.89 57.63 75.74 56.87 70.98 C 56.28 63.39 56.79 55.74 56.65 48.13 C 59.90 48.05 63.47 48.78 66.35 46.83 C 63.15 46.18 59.89 46.23 56.65 46.28 C 56.66 41.86 56.64 37.44 56.55 33.02 C 51.72 35.71 50.57 40.74 51.31 45.89 M 13.11 46.36 C 13.14 56.48 13.13 66.59 13.12 76.70 C 14.75 76.39 16.85 77.09 18.17 75.97 C 18.46 66.06 18.34 56.11 18.18 46.19 C 16.49 46.25 14.80 46.30 13.11 46.36 M 22.46 46.55 C 22.76 56.50 22.68 66.47 22.50 76.43 C 24.28 76.45 26.06 76.55 27.84 76.69 C 27.88 67.17 27.78 57.65 27.90 48.13 C 31.34 48.25 36.10 47.29 37.96 51.09 C 38.75 59.55 38.04 68.10 38.28 76.59 C 40.04 76.57 41.80 76.56 43.55 76.55 C 43.18 68.73 44.29 60.75 42.99 53.02 C 39.78 44.59 29.61 46.25 22.46 46.55 Z" />
</g>
</svg>
